# xmcd CD database file
#
# Track frame offsets:
#	180
#	21243
#	46185
#	70697
#	87953
#	102060
#	119981
#	138398
#	157503
#	177034
#	190531
#	211430
#	232610
#	251305
#	266223
#	284831
#
# Disc length: 3978 seconds
#
# Revision: 1
# Processed by: cddbd v1.5.1PL0 Copyright (c) Steve Scherf et al.
# Submitted via: CDex 1.51
#
DISCID=d50f8810
DTITLE=Jessica Williams - Jessica Williams Plays Ellington
DYEAR=1900
DGENRE=Jazz
TTITLE0=Angelica
TTITLE1=In a Sentimental Mood
TTITLE2=Prelude to a Kiss
TTITLE3=Solitude
TTITLE4=Satin Doll
TTITLE5=C-Jam Blues
TTITLE6=Warm Valley
TTITLE7=I Let a Song Go Out of My Heart
TTITLE8=It Don't Mean a Thing (If It Ain't Got That Swing)
TTITLE9=Things Ain't What They Used to Be
TTITLE10=Do Nothing Till You Hear From Me
TTITLE11=Sophisticated Lady
TTITLE12=I Got It Bad And That Ain't Good
TTITLE13=Take the 'A' Train
TTITLE14=Don't Get Around Much Anymore
TTITLE15=and more 
EXTD=
EXTT0=
EXTT1=
EXTT2=
EXTT3=
EXTT4=
EXTT5=
EXTT6=
EXTT7=
EXTT8=
EXTT9=
EXTT10=
EXTT11=
EXTT12=
EXTT13=
EXTT14=
EXTT15=
PLAYORDER=
